<?xml version="1.0" standalone="no"?>
<!DOCTYPE svg PUBLIC "-//W3C//DTD SVG 20010904//EN"
 "http://www.w3.org/TR/2001/REC-SVG-20010904/DTD/svg10.dtd">
<svg version="1.0" xmlns="http://www.w3.org/2000/svg"
 width="800.000000pt" height="800.000000pt" viewBox="0 0 800.000000 800.000000"
 preserveAspectRatio="xMidYMid meet">
<metadata>
Created by potrace 1.11, written by Peter Selinger 2001-2013
</metadata>
<g transform="translate(0.000000,800.000000) scale(0.100000,-0.100000)"
fill="#000000" stroke="none">
<path d="M13 5846 c-8 -12 -7 -985 0 -993 4 -3 61 -6 128 -7 l122 -1 0 -843
c0 -463 -3 -845 -6 -848 -4 -4 -60 -7 -127 -6 -116 0 -120 -1 -121 -22 0 -11
-1 -232 -1 -490 0 -311 3 -470 10 -475 7 -4 1530 -6 1587 -2 8 1 11 479 5 954
l0 37 -87 -1 c-49 -1 -101 -1 -118 0 l-30 1 1 158 1 157 410 3 410 2 0 480 c0
432 -2 480 -16 480 -9 1 -193 1 -408 2 -216 0 -393 3 -394 7 -1 9 -1 384 0
399 1 9 54 12 230 12 l228 0 1 -92 c0 -51 0 -103 1 -115 l1 -23 554 0 554 0 0
615 c1 571 0 615 -16 616 -191 5 -2915 1 -2919 -5z"/>
<path d="M3099 5850 l-24 -5 0 -497 0 -498 126 0 126 0 -1 -851 -1 -852 -122
1 c-68 1 -124 -2 -124 -6 -1 -4 -2 -226 -3 -494 l-1 -488 802 0 803 0 0 495 0
495 -116 -1 c-64 0 -119 2 -122 5 -4 5 -7 1623 -3 1684 1 9 33 12 124 12 l122
0 0 500 c0 326 -3 500 -10 500 -79 4 -1558 4 -1576 0z"/>
<path d="M4811 5850 c-4 -3 -7 -229 -6 -502 l0 -498 121 0 121 0 0 -991 0
-991 60 -61 c93 -97 371 -388 545 -571 l75 -79 664 -1 664 -1 81 85 c85 89
104 109 312 329 158 167 194 205 244 258 l41 41 -1 991 0 991 124 0 124 0 0
500 0 500 -22 0 c-34 1 -1427 1 -1470 1 l-38 -1 0 -500 0 -499 86 -3 87 -3 0
-843 c0 -463 -2 -845 -5 -848 -4 -4 -300 -8 -419 -5 l-36 1 0 850 0 850 76 0
76 0 0 500 0 500 -35 0 c-273 4 -1464 4 -1469 0z"/>
</g>
</svg>
